# xmcd CD database file
#
# Track frame offsets:
#	150
#	20400
#	36410
#	56550
#	75712
#	95850
#	110885
#	127237
#	151425
#
# Disc length: 2573 seconds
#
# Revision: 6
# Processed by: cddbd v1.5.2PL0 Copyright (c) Steve Scherf et al.
# Submitted via: CDex 1.51
#
DISCID=800a0b09
DTITLE=Rory Block - Angel of Mercy
DYEAR=1994
DGENRE=Blues
TTITLE0=Angel of Mercy
TTITLE1=It Ain't Right
TTITLE2=I'll Be Gone
TTITLE3=Who Was Calling
TTITLE4=Somebody's Baby
TTITLE5=Big Bad Agent Man
TTITLE6=You Deserve the Best
TTITLE7=Love Without the Heart
TTITLE8=A Father and Two Sons
EXTD=LABEL =Rounder Records Corp.\nID =CD3126\nUPC =011661-3126-23\nCOPYRIGHT =1994 YEAR: 1994
EXTT0=
EXTT1=
EXTT2=
EXTT3=
EXTT4=
EXTT5=
EXTT6=
EXTT7=
EXTT8=
PLAYORDER=
